<svg width="1000" height="1000" viewBox="0 0 1000 1000" fill="none" xmlns="http://www.w3.org/2000/svg">
<g clip-path="url(#clip0_201_54)">
<path d="M961.25 286.25L1296.25 326.125M1158.75 1100L913.75 921.25L650 825L386.25 672.5L50 748.75M50 748.75L368.75 955L158.125 1099.38L50 748.75ZM50 748.75L-246.25 616.25L127.5 477.5L-38.75 286.25L158.125 99.375L-86.25 -78.75" stroke="#292A2B" stroke-width="1.25"/>
<path d="M-38.75 286.25L296.25 326.25L487.5 477.5L753.75 616.25L385.625 671.875L126.875 476.875M462.5 1131.25L368.75 955" stroke="#292A2B" stroke-width="1.25"/>
<path d="M650 825L722.5 1052.5L913.75 921.25L1050 748.75L753.75 616.25L650 825ZM650 825L368.75 955L386.25 672.5L487.5 477.5L673.75 336.25L961.25 286.25L721.875 51.875L462.5 131.25L368.75 -45L158.125 99.375L296.25 326.25L127.5 477.5L50 748.75L-86.25 921.25L158.75 1100" stroke="#292A2B" stroke-width="1.25"/>
<path d="M650 -175L723.125 53.125L913.75 -78.75M753.75 616.25L673.75 336.25M673.75 336.25L296.25 326.25L462.5 131.25M673.75 336.25L1127.5 477.5M487.5 477.5H127.5" stroke="#292A2B" stroke-width="1.25"/>
<path d="M-277.5 52.5L158.125 99.375L462.5 131.25L673.75 336.25L721.875 51.875M721.875 51.875L1158.75 100L961.25 286.25L1127.5 477.5L753.75 616.25L913.75 921.25M721.875 51.875L368.75 -45M722.5 1052.5L368.75 955M50 -251.25L158.75 100M127.5 477.5L-326.25 336.25" stroke="#292A2B" stroke-width="1.25"/>
<path d="M961.25 292.5C964.702 292.5 967.5 289.702 967.5 286.25C967.5 282.798 964.702 280 961.25 280C957.798 280 955 282.798 955 286.25C955 289.702 957.798 292.5 961.25 292.5Z" fill="#292A2B"/>
<path d="M673.75 342.5C677.202 342.5 680 339.702 680 336.25C680 332.798 677.202 330 673.75 330C670.298 330 667.5 332.798 667.5 336.25C667.5 339.702 670.298 342.5 673.75 342.5Z" fill="#292A2B"/>
<path d="M753.75 622.5C757.202 622.5 760 619.702 760 616.25C760 612.798 757.202 610 753.75 610C750.298 610 747.5 612.798 747.5 616.25C747.5 619.702 750.298 622.5 753.75 622.5Z" fill="#292A2B"/>
<path d="M913.75 927.5C917.202 927.5 920 924.702 920 921.25C920 917.798 917.202 915 913.75 915C910.298 915 907.5 917.798 907.5 921.25C907.5 924.702 910.298 927.5 913.75 927.5Z" fill="#292A2B"/>
<path d="M650 831.25C653.452 831.25 656.25 828.452 656.25 825C656.25 821.548 653.452 818.75 650 818.75C646.548 818.75 643.75 821.548 643.75 825C643.75 828.452 646.548 831.25 650 831.25Z" fill="#292A2B"/>
<path d="M386.25 678.75C389.702 678.75 392.5 675.952 392.5 672.5C392.5 669.048 389.702 666.25 386.25 666.25C382.798 666.25 380 669.048 380 672.5C380 675.952 382.798 678.75 386.25 678.75Z" fill="#292A2B"/>
<path d="M368.75 961.25C372.202 961.25 375 958.452 375 955C375 951.548 372.202 948.75 368.75 948.75C365.298 948.75 362.5 951.548 362.5 955C362.5 958.452 365.298 961.25 368.75 961.25Z" fill="#292A2B"/>
<path d="M50 755C53.4518 755 56.25 752.202 56.25 748.75C56.25 745.298 53.4518 742.5 50 742.5C46.5482 742.5 43.75 745.298 43.75 748.75C43.75 752.202 46.5482 755 50 755Z" fill="#292A2B"/>
<path d="M127.5 483.75C130.952 483.75 133.75 480.952 133.75 477.5C133.75 474.048 130.952 471.25 127.5 471.25C124.048 471.25 121.25 474.048 121.25 477.5C121.25 480.952 124.048 483.75 127.5 483.75Z" fill="#292A2B"/>
<path d="M158.75 106.25C162.202 106.25 165 103.452 165 100C165 96.5482 162.202 93.75 158.75 93.75C155.298 93.75 152.5 96.5482 152.5 100C152.5 103.452 155.298 106.25 158.75 106.25Z" fill="#292A2B"/>
<path d="M462.5 137.5C465.952 137.5 468.75 134.702 468.75 131.25C468.75 127.798 465.952 125 462.5 125C459.048 125 456.25 127.798 456.25 131.25C456.25 134.702 459.048 137.5 462.5 137.5Z" fill="#292A2B"/>
<path d="M722.5 58.75C725.952 58.75 728.75 55.9518 728.75 52.5C728.75 49.0482 725.952 46.25 722.5 46.25C719.048 46.25 716.25 49.0482 716.25 52.5C716.25 55.9518 719.048 58.75 722.5 58.75Z" fill="#292A2B"/>
<path d="M296.25 332.5C299.702 332.5 302.5 329.702 302.5 326.25C302.5 322.798 299.702 320 296.25 320C292.798 320 290 322.798 290 326.25C290 329.702 292.798 332.5 296.25 332.5Z" fill="#292A2B"/>
<path d="M487.5 483.75C490.952 483.75 493.75 480.952 493.75 477.5C493.75 474.048 490.952 471.25 487.5 471.25C484.048 471.25 481.25 474.048 481.25 477.5C481.25 480.952 484.048 483.75 487.5 483.75Z" fill="#292A2B"/>
</g>
<defs>
<clipPath id="clip0_201_54">
<rect width="1000" height="1000" fill="white"/>
</clipPath>
</defs>
</svg>
